<svg width="215" height="325" viewBox="0 0 215 325" fill="none" xmlns="http://www.w3.org/2000/svg">
<g filter="url(#filter0_d)">
<path d="M211 196.5C211 263.05 164.661 317 107.5 317C50.3385 317 4 263.05 4 196.5C4 129.95 60 29 107.5 0C160.5 42 211 129.95 211 196.5Z" fill="#CD2F2F"/>
<path d="M209 196.5C209 262.242 163.282 315 107.5 315C51.7177 315 6 262.242 6 196.5C6 163.69 19.8387 122.153 39.7001 85.1138C59.2389 48.6761 84.3749 17.0212 107.356 2.44503C133.217 23.2649 158.482 55.115 177.366 89.9958C196.526 125.386 209 163.676 209 196.5Z" stroke="#DD5D5D" stroke-width="4"/>
</g>
<defs>
<filter id="filter0_d" x="0" y="0" width="215" height="325" filterUnits="userSpaceOnUse" color-interpolation-filters="sRGB">
<feFlood flood-opacity="0" result="BackgroundImageFix"/>
<feColorMatrix in="SourceAlpha" type="matrix" values="0 0 0 0 0 0 0 0 0 0 0 0 0 0 0 0 0 0 127 0"/>
<feOffset dy="4"/>
<feGaussianBlur stdDeviation="2"/>
<feColorMatrix type="matrix" values="0 0 0 0 0 0 0 0 0 0 0 0 0 0 0 0 0 0 0.25 0"/>
<feBlend mode="normal" in2="BackgroundImageFix" result="effect1_dropShadow"/>
<feBlend mode="normal" in="SourceGraphic" in2="effect1_dropShadow" result="shape"/>
</filter>
</defs>
</svg>
